<svg width="27" height="27" viewBox="0 0 27 27" fill="none" xmlns="http://www.w3.org/2000/svg">
<g clip-path="url(#clip0_67_43)">
<path d="M8.25235 7.81628C6.75052 9.31808 6.75052 11.7617 8.25232 13.2634L9.05001 12.4658C7.9881 11.4039 7.98807 9.67598 9.05004 8.61402C10.112 7.55209 11.8399 7.55208 12.9018 8.61399L13.6995 7.8163C12.1977 6.31448 9.75412 6.31451 8.25235 7.81628Z" fill="#6E9C9F"/>
<path d="M9.84133 9.39112C9.20916 10.0233 9.20913 11.0519 9.8413 11.6841L10.639 10.8865C10.5458 10.7933 10.4945 10.6694 10.4945 10.5376C10.4945 10.4059 10.5459 10.282 10.639 10.1889C10.7322 10.0957 10.8561 10.0444 10.9878 10.0444C11.1196 10.0444 11.2435 10.0957 11.3366 10.1889L12.1343 9.39114C11.5022 8.75895 10.4735 8.75895 9.84133 9.39112Z" fill="#6E9C9F"/>
<path d="M19.7485 7.43499L17.8553 5.54834L13.9236 9.47353L15.4478 11.0477C15.1923 11.5011 14.6381 12.3698 13.6935 13.3143C12.7488 14.259 11.8738 14.8196 11.4161 15.0791L9.87279 13.5555L6.00244 17.4028L7.88529 19.2982C8.60504 20.0179 9.70016 20.2044 10.6104 19.7624C11.9994 19.0878 14.0956 17.843 16.1945 15.7442C18.2933 13.6454 19.538 11.5491 20.2127 10.1601C20.3725 9.83095 20.4502 9.47774 20.4502 9.12678C20.4502 8.50706 20.208 7.89451 19.7485 7.43499ZM19.1979 9.66719C18.5611 10.9783 17.3847 12.9585 15.3968 14.9464C13.4089 16.9344 11.4287 18.1108 10.1175 18.7476C9.63953 18.9797 9.06305 18.8804 8.68438 18.5018L7.59764 17.4078L9.87561 15.1435L11.1903 16.4414L11.5421 16.2848C11.5992 16.2593 12.9597 15.6437 14.4913 14.112C16.024 12.5793 16.6268 11.2304 16.6517 11.1737L16.8043 10.8267L15.507 9.48691L17.8561 7.14165L18.9514 8.23313C19.3308 8.61316 19.43 9.18938 19.1979 9.66719Z" fill="#6E9C9F"/>
</g>
<defs>
<clipPath id="clip0_67_43">
<rect width="17" height="17" fill="white" transform="translate(6 3)"/>
</clipPath>
</defs>
</svg>
